<svg width="320" height="200" viewBox="0 0 320 200" xmlns="http://www.w3.org/2000/svg">
  <defs>
    <linearGradient id="g" x1="0" y1="0" x2="1" y2="1">
      <stop offset="0" stop-color="#4a7cf7"/>
      <stop offset="1" stop-color="#8ea9ff"/>
    </linearGradient>
  </defs>
  <rect x="0" y="0" width="320" height="200" fill="#f7f9fc"/>
  <rect x="30" y="40" width="260" height="120" rx="12" fill="url(#g)" opacity="0.15" stroke="#dfe3ea"/>
  <g fill="#4a7cf7">
    <rect x="50" y="60" width="30" height="20" rx="4"/>
    <rect x="85" y="60" width="30" height="20" rx="4"/>
    <rect x="120" y="60" width="30" height="20" rx="4"/>
    <rect x="155" y="60" width="30" height="20" rx="4"/>
    <rect x="190" y="60" width="30" height="20" rx="4"/>
    <rect x="225" y="60" width="30" height="20" rx="4"/>

    <rect x="50" y="85" width="30" height="20" rx="4"/>
    <rect x="85" y="85" width="30" height="20" rx="4"/>
    <rect x="120" y="85" width="30" height="20" rx="4"/>
    <rect x="155" y="85" width="30" height="20" rx="4"/>
    <rect x="190" y="85" width="30" height="20" rx="4"/>
    <rect x="225" y="85" width="30" height="20" rx="4"/>

    <rect x="80" y="110" width="160" height="20" rx="6"/>
  </g>
  <text x="160" y="30" text-anchor="middle" font-family="Segoe UI, Arial" font-size="16" fill="#4a7cf7">Typing Game</text>
</svg>
